<?xml version="1.0" encoding="UTF-8" standalone="no"?>
<!-- Created with Inkscape (http://www.inkscape.org/) -->

<svg
   width="500mm"
   height="500mm"
   viewBox="0 0 500 500"
   version="1.1"
   id="svg1"
   xmlns="http://www.w3.org/2000/svg"
   xmlns:svg="http://www.w3.org/2000/svg">
  <defs
     id="defs1" />
  <g
     id="layer2">
    <g
       id="g8"
       transform="translate(24.382005,28.672148)">
      <g
         id="g6"
         transform="translate(-21.308461,-46.843453)">
        <path
           id="rect2-3"
           style="fill:#2e2e2e;fill-opacity:1;stroke:#212121;stroke-width:2.01541;stroke-linecap:round;stroke-linejoin:round;stroke-dasharray:none;stroke-opacity:1;paint-order:normal"
           d="m 210.05703,101.58728 -14.68288,12.3204 a 59.3806,59.3806 45 0 0 -24.25607,-12.62689 l 1.67095,-19.093376 -18.8905,-1.653196 -1.67051,19.09391 a 59.3806,59.3806 45 0 0 -26.08021,8.223042 L 113.82786,93.168822 99.301741,105.35768 111.62169,120.04003 A 59.3806,59.3806 45 0 0 98.994804,144.2961 l -19.093375,-1.67095 -1.652748,18.89104 19.093457,1.66997 a 59.3806,59.3806 45 0 0 8.223032,26.08021 l -14.682356,12.31995 12.188856,14.52611 14.68235,-12.31995 a 59.3806,59.3806 45 0 0 24.25608,12.62689 l -1.67049,19.0939 18.89059,1.65223 1.66996,-19.09347 a 59.3806,59.3806 45 0 0 26.0802,-8.22303 l 12.3204,14.68287 14.52612,-12.18886 -12.3204,-14.68287 a 59.3806,59.3806 45 0 0 12.62689,-24.25609 l 19.09392,1.67051 1.65266,-18.89006 -19.0939,-1.6705 A 59.3806,59.3806 45 0 0 207.563,128.43379 l 14.68288,-12.3204 z m -38.36831,44.57219 a 19.743408,19.743408 0 0 1 -2.43349,27.81478 19.743408,19.743408 0 0 1 -27.81479,-2.43346 19.743408,19.743408 0 0 1 2.43348,-27.8148 19.743408,19.743408 0 0 1 27.8148,2.43348 z" />
        <path
           id="rect2-3-1"
           style="fill:#5e5e5e;fill-opacity:1;stroke:#000000;stroke-width:2.01533;stroke-linecap:round;stroke-linejoin:round;stroke-dasharray:none;stroke-opacity:1;paint-order:normal"
           d="M 207.02104,97.729758 192.33817,110.05014 A 59.3806,59.3806 45 0 0 168.08209,97.423262 l 1.67094,-19.093402 -18.8905,-1.653191 -1.67051,19.093905 a 59.3806,59.3806 45 0 0 -26.0802,8.223046 L 110.79187,89.311267 96.26575,101.50013 108.5857,116.18248 a 59.3806,59.3806 45 0 0 -12.626892,24.25606 l -19.09337,-1.67094 -1.652753,18.89103 19.093477,1.66999 a 59.3806,59.3806 45 0 0 8.223028,26.08021 l -14.682352,12.31996 12.188852,14.52611 14.68235,-12.31996 a 59.3806,59.3806 45 0 0 24.25609,12.62689 l -1.6705,19.0939 18.89059,1.65223 1.66996,-19.09347 a 59.3806,59.3806 45 0 0 26.08021,-8.22303 l 12.32039,14.68287 14.52612,-12.18886 -12.32039,-14.68287 a 59.3806,59.3806 45 0 0 12.62688,-24.25608 l 19.09392,1.67051 1.65266,-18.89006 -19.09391,-1.6705 a 59.3806,59.3806 45 0 0 -8.22303,-26.08022 l 14.68286,-12.32038 z m -38.36831,44.572182 a 19.743408,19.743408 0 0 1 -2.43348,27.81477 19.743408,19.743408 0 0 1 -27.81478,-2.43346 19.743408,19.743408 0 0 1 2.43348,-27.8148 19.743408,19.743408 0 0 1 27.81478,2.43349 z" />
      </g>
      <g
         id="g5"
         transform="translate(-14.195006,-46.293415)">
        <path
           id="rect2-3-5"
           style="fill:#2e2e2e;fill-opacity:1;stroke:#212121;stroke-width:1.43604;stroke-linecap:round;stroke-linejoin:round;stroke-dasharray:none;stroke-opacity:1;paint-order:normal"
           d="M 372.33699,226.91922 369.96536,213.469 a 42.312144,42.312144 0 0 0 16.4339,-10.46957 l 11.18707,7.83371 7.75048,-11.06821 -11.18757,-7.83362 a 42.312144,42.312144 0 0 0 4.21745,-19.02363 l 13.44973,-2.37155 -2.34632,-13.30661 -13.44972,2.37155 A 42.312144,42.312144 0 0 0 385.5508,143.16715 l 7.83371,-11.18707 -11.0687,-7.75038 -7.83313,11.18747 a 42.312144,42.312144 0 0 0 -19.02363,-4.21745 l -2.37154,-13.44973 -13.30661,2.34631 2.37155,13.44973 a 42.312144,42.312144 0 0 0 -16.43391,10.46957 l -11.18757,-7.8336 -7.7499,11.0686 11.18748,7.83313 a 42.312144,42.312144 0 0 0 -4.21744,19.02362 l -13.45021,2.37164 2.34631,13.30661 13.45021,-2.37163 a 42.312144,42.312144 0 0 0 10.46957,16.43391 l -7.83362,11.18757 11.06813,7.74998 7.83361,-11.18756 a 42.312144,42.312144 0 0 0 19.02365,4.21745 l 2.37163,13.45021 z M 358.5016,187.36223 a 14.068331,14.068331 0 0 1 -16.29732,-11.41152 14.068331,14.068331 0 0 1 11.4115,-16.29733 14.068331,14.068331 0 0 1 16.29734,11.41151 14.068331,14.068331 0 0 1 -11.41152,16.29734 z" />
        <path
           id="rect2-3-1-2"
           style="fill:#5e5e5e;fill-opacity:1;stroke:#000000;stroke-width:2.01533;stroke-linecap:round;stroke-linejoin:round;stroke-dasharray:none;stroke-opacity:1;paint-order:normal"
           d="m 370.17366,224.17048 -2.37162,-13.4502 a 42.312144,42.312144 0 0 0 16.43389,-10.46958 l 11.1871,7.83371 7.75047,-11.06821 -11.18756,-7.83362 a 42.312144,42.312144 0 0 0 4.21744,-19.02363 l 13.44973,-2.37155 -2.34631,-13.30661 -13.44973,2.37155 A 42.312144,42.312144 0 0 0 383.3875,140.41843 l 7.8337,-11.18707 -11.0687,-7.75039 -7.83314,11.18748 a 42.312144,42.312144 0 0 0 -19.02363,-4.21746 l -2.37155,-13.44973 -13.30661,2.34631 2.37156,13.44973 a 42.312144,42.312144 0 0 0 -16.43392,10.46958 l -11.18756,-7.83361 -7.7499,11.06861 11.18748,7.83313 a 42.312144,42.312144 0 0 0 -4.21745,19.02363 l -13.4502,2.37163 2.34631,13.30661 13.4502,-2.37164 a 42.312144,42.312144 0 0 0 10.46958,16.43391 l -7.83363,11.18757 11.06813,7.74998 7.83362,-11.18757 a 42.312144,42.312144 0 0 0 19.02364,4.21746 l 2.37163,13.4502 z M 356.33827,184.6135 a 14.068331,14.068331 0 0 1 -16.29731,-11.41151 14.068331,14.068331 0 0 1 11.41149,-16.29734 14.068331,14.068331 0 0 1 16.29735,11.41153 14.068331,14.068331 0 0 1 -11.41153,16.29732 z" />
      </g>
      <g
         id="g7"
         transform="translate(-12.94014,-51.94031)">
        <path
           id="rect2-3-6"
           style="fill:#2e2e2e;fill-opacity:1;stroke:#212121;stroke-width:2.01533;stroke-linecap:round;stroke-linejoin:round;stroke-dasharray:none;stroke-opacity:1;paint-order:normal"
           d="m 247.11075,205.03964 v 31.99923 a 99.134979,99.134979 0 0 0 -42.17828,17.47086 l -22.62538,-22.62654 -22.38612,22.38496 22.62653,22.62654 a 99.134979,99.134979 0 0 0 -17.47085,42.1783 h -31.99808 v 31.6576 h 31.99808 a 99.134979,99.134979 0 0 0 17.47085,42.17828 l -22.62653,22.62537 22.38612,22.38612 22.62538,-22.62652 a 99.134979,99.134979 0 0 0 42.17828,17.47087 v 31.99808 h 31.65758 v -31.99808 a 99.134979,99.134979 0 0 0 42.1783,-17.47087 l 22.62652,22.62652 22.38498,-22.38612 -22.62655,-22.62537 a 99.134979,99.134979 0 0 0 17.47087,-42.17828 h 31.99922 v -31.6576 h -31.99922 a 99.134979,99.134979 0 0 0 -17.47087,-42.1783 l 22.62655,-22.62654 -22.38498,-22.38496 -22.62652,22.62654 a 99.134979,99.134979 0 0 0 -42.1783,-17.47086 v -31.99923 z m 15.82939,96.90067 a 32.96131,32.96131 0 0 1 32.96086,32.9609 32.96131,32.96131 0 0 1 -32.96086,32.96089 32.96131,32.96131 0 0 1 -32.9609,-32.96089 32.96131,32.96131 0 0 1 32.9609,-32.9609 z" />
        <path
           id="rect2-3-1-1"
           style="fill:#5e5e5e;fill-opacity:1;stroke:#000000;stroke-width:2.01533;stroke-linecap:round;stroke-linejoin:round;stroke-dasharray:none;stroke-opacity:1;paint-order:normal"
           d="m 242.04223,198.59955 v 31.99921 a 99.134979,99.134979 0 0 0 -42.17828,17.47087 l -22.62542,-22.62654 -22.38612,22.38496 22.62652,22.62654 a 99.134979,99.134979 0 0 0 -17.47084,42.17828 h -31.99808 v 31.6576 h 31.99808 a 99.134979,99.134979 0 0 0 17.47084,42.17829 l -22.62652,22.62536 22.38612,22.38612 22.62542,-22.62652 a 99.134979,99.134979 0 0 0 42.17828,17.47087 v 31.99808 h 31.65758 v -31.99808 a 99.134979,99.134979 0 0 0 42.1783,-17.47087 l 22.62652,22.62652 22.38498,-22.38612 -22.62655,-22.62536 a 99.134979,99.134979 0 0 0 17.47087,-42.17829 h 31.99922 v -31.6576 h -31.99922 a 99.134979,99.134979 0 0 0 -17.47087,-42.17828 l 22.62655,-22.62654 -22.38498,-22.38496 -22.62652,22.62654 a 99.134979,99.134979 0 0 0 -42.1783,-17.47087 v -31.99921 z m 15.82938,96.90066 a 32.96131,32.96131 0 0 1 32.96087,32.96088 32.96131,32.96131 0 0 1 -32.96087,32.96089 32.96131,32.96131 0 0 1 -32.96089,-32.96089 32.96131,32.96131 0 0 1 32.96089,-32.96088 z" />
      </g>
    </g>
  </g>
</svg>
